<mxfile host="app.diagrams.net" agent="Mozilla/5.0 (Macintosh; Intel Mac OS X 10_15_7) AppleWebKit/537.36 (KHTML, like Gecko) Chrome/130.0.0.0 Safari/537.36" version="24.7.12">
  <diagram name="第 1 页" id="ytwl1VWAvXmkzShz7rxz">
    <mxGraphModel dx="1051" dy="862" grid="1" gridSize="10" guides="1" tooltips="1" connect="1" arrows="1" fold="1" page="1" pageScale="1" pageWidth="827" pageHeight="1169" math="0" shadow="0">
      <root>
        <mxCell id="0" />
        <mxCell id="1" parent="0" />
        <mxCell id="AN33XtS7_5ad6eHv9xY9-1" value="用户" style="shape=umlLifeline;perimeter=lifelinePerimeter;whiteSpace=wrap;container=1;dropTarget=0;collapsible=0;recursiveResize=0;outlineConnect=0;portConstraint=eastwest;newEdgeStyle={&quot;edgeStyle&quot;:&quot;elbowEdgeStyle&quot;,&quot;elbow&quot;:&quot;vertical&quot;,&quot;curved&quot;:0,&quot;rounded&quot;:0};size=65;" vertex="1" parent="1">
          <mxGeometry x="20" y="20" width="150" height="620" as="geometry" />
        </mxCell>
        <mxCell id="AN33XtS7_5ad6eHv9xY9-2" value="登录页面" style="shape=umlLifeline;perimeter=lifelinePerimeter;whiteSpace=wrap;container=1;dropTarget=0;collapsible=0;recursiveResize=0;outlineConnect=0;portConstraint=eastwest;newEdgeStyle={&quot;edgeStyle&quot;:&quot;elbowEdgeStyle&quot;,&quot;elbow&quot;:&quot;vertical&quot;,&quot;curved&quot;:0,&quot;rounded&quot;:0};size=65;" vertex="1" parent="1">
          <mxGeometry x="220" y="20" width="150" height="620" as="geometry" />
        </mxCell>
        <mxCell id="AN33XtS7_5ad6eHv9xY9-3" value="后端服务" style="shape=umlLifeline;perimeter=lifelinePerimeter;whiteSpace=wrap;container=1;dropTarget=0;collapsible=0;recursiveResize=0;outlineConnect=0;portConstraint=eastwest;newEdgeStyle={&quot;edgeStyle&quot;:&quot;elbowEdgeStyle&quot;,&quot;elbow&quot;:&quot;vertical&quot;,&quot;curved&quot;:0,&quot;rounded&quot;:0};size=65;" vertex="1" parent="1">
          <mxGeometry x="434" y="20" width="150" height="620" as="geometry" />
        </mxCell>
        <mxCell id="AN33XtS7_5ad6eHv9xY9-4" value="数据库" style="shape=umlLifeline;perimeter=lifelinePerimeter;whiteSpace=wrap;container=1;dropTarget=0;collapsible=0;recursiveResize=0;outlineConnect=0;portConstraint=eastwest;newEdgeStyle={&quot;edgeStyle&quot;:&quot;elbowEdgeStyle&quot;,&quot;elbow&quot;:&quot;vertical&quot;,&quot;curved&quot;:0,&quot;rounded&quot;:0};size=65;" vertex="1" parent="1">
          <mxGeometry x="754" y="20" width="150" height="620" as="geometry" />
        </mxCell>
        <mxCell id="AN33XtS7_5ad6eHv9xY9-5" value="邮箱/短信服务" style="shape=umlLifeline;perimeter=lifelinePerimeter;whiteSpace=wrap;container=1;dropTarget=0;collapsible=0;recursiveResize=0;outlineConnect=0;portConstraint=eastwest;newEdgeStyle={&quot;edgeStyle&quot;:&quot;elbowEdgeStyle&quot;,&quot;elbow&quot;:&quot;vertical&quot;,&quot;curved&quot;:0,&quot;rounded&quot;:0};size=65;" vertex="1" parent="1">
          <mxGeometry x="954" y="20" width="150" height="620" as="geometry" />
        </mxCell>
        <mxCell id="AN33XtS7_5ad6eHv9xY9-6" value="输入邮箱或手机号" style="verticalAlign=bottom;edgeStyle=elbowEdgeStyle;elbow=vertical;curved=0;rounded=0;endArrow=block;" edge="1" parent="1" source="AN33XtS7_5ad6eHv9xY9-1" target="AN33XtS7_5ad6eHv9xY9-2">
          <mxGeometry relative="1" as="geometry">
            <Array as="points">
              <mxPoint x="204" y="121" />
            </Array>
          </mxGeometry>
        </mxCell>
        <mxCell id="AN33XtS7_5ad6eHv9xY9-7" value="提交验证请求" style="verticalAlign=bottom;edgeStyle=elbowEdgeStyle;elbow=vertical;curved=0;rounded=0;endArrow=block;" edge="1" parent="1" source="AN33XtS7_5ad6eHv9xY9-2" target="AN33XtS7_5ad6eHv9xY9-3">
          <mxGeometry relative="1" as="geometry">
            <Array as="points">
              <mxPoint x="411" y="167" />
            </Array>
          </mxGeometry>
        </mxCell>
        <mxCell id="AN33XtS7_5ad6eHv9xY9-8" value="发送验证码" style="verticalAlign=bottom;edgeStyle=elbowEdgeStyle;elbow=vertical;curved=0;rounded=0;endArrow=block;" edge="1" parent="1" source="AN33XtS7_5ad6eHv9xY9-3" target="AN33XtS7_5ad6eHv9xY9-5">
          <mxGeometry relative="1" as="geometry">
            <Array as="points">
              <mxPoint x="778" y="213" />
            </Array>
          </mxGeometry>
        </mxCell>
        <mxCell id="AN33XtS7_5ad6eHv9xY9-9" value="接收验证码" style="verticalAlign=bottom;edgeStyle=elbowEdgeStyle;elbow=vertical;curved=0;rounded=0;dashed=1;dashPattern=2 3;endArrow=block;" edge="1" parent="1" source="AN33XtS7_5ad6eHv9xY9-5" target="AN33XtS7_5ad6eHv9xY9-1">
          <mxGeometry relative="1" as="geometry">
            <Array as="points">
              <mxPoint x="574" y="259" />
            </Array>
          </mxGeometry>
        </mxCell>
        <mxCell id="AN33XtS7_5ad6eHv9xY9-10" value="输入验证码" style="verticalAlign=bottom;edgeStyle=elbowEdgeStyle;elbow=vertical;curved=0;rounded=0;endArrow=block;" edge="1" parent="1" source="AN33XtS7_5ad6eHv9xY9-1" target="AN33XtS7_5ad6eHv9xY9-2">
          <mxGeometry relative="1" as="geometry">
            <Array as="points">
              <mxPoint x="204" y="305" />
            </Array>
          </mxGeometry>
        </mxCell>
        <mxCell id="AN33XtS7_5ad6eHv9xY9-11" value="提交验证码验证请求" style="verticalAlign=bottom;edgeStyle=elbowEdgeStyle;elbow=vertical;curved=0;rounded=0;endArrow=block;" edge="1" parent="1" source="AN33XtS7_5ad6eHv9xY9-2" target="AN33XtS7_5ad6eHv9xY9-3">
          <mxGeometry relative="1" as="geometry">
            <Array as="points">
              <mxPoint x="411" y="351" />
            </Array>
          </mxGeometry>
        </mxCell>
        <mxCell id="AN33XtS7_5ad6eHv9xY9-12" value="查询验证码有效性（有效期5分钟）" style="verticalAlign=bottom;edgeStyle=elbowEdgeStyle;elbow=vertical;curved=0;rounded=0;endArrow=block;" edge="1" parent="1" source="AN33XtS7_5ad6eHv9xY9-3" target="AN33XtS7_5ad6eHv9xY9-4">
          <mxGeometry relative="1" as="geometry">
            <Array as="points">
              <mxPoint x="678" y="397" />
            </Array>
          </mxGeometry>
        </mxCell>
        <mxCell id="AN33XtS7_5ad6eHv9xY9-13" value="验证通过" style="verticalAlign=bottom;edgeStyle=elbowEdgeStyle;elbow=vertical;curved=0;rounded=0;dashed=1;dashPattern=2 3;endArrow=block;" edge="1" parent="1" source="AN33XtS7_5ad6eHv9xY9-4" target="AN33XtS7_5ad6eHv9xY9-3">
          <mxGeometry relative="1" as="geometry">
            <Array as="points">
              <mxPoint x="681" y="443" />
            </Array>
          </mxGeometry>
        </mxCell>
        <mxCell id="AN33XtS7_5ad6eHv9xY9-14" value="返回登录成功信息" style="verticalAlign=bottom;edgeStyle=elbowEdgeStyle;elbow=vertical;curved=0;rounded=0;dashed=1;dashPattern=2 3;endArrow=block;" edge="1" parent="1" source="AN33XtS7_5ad6eHv9xY9-3" target="AN33XtS7_5ad6eHv9xY9-2">
          <mxGeometry relative="1" as="geometry">
            <Array as="points">
              <mxPoint x="414" y="489" />
            </Array>
          </mxGeometry>
        </mxCell>
        <mxCell id="AN33XtS7_5ad6eHv9xY9-15" value="显示登录成功" style="verticalAlign=bottom;edgeStyle=elbowEdgeStyle;elbow=vertical;curved=0;rounded=0;dashed=1;dashPattern=2 3;endArrow=block;" edge="1" parent="1" source="AN33XtS7_5ad6eHv9xY9-2" target="AN33XtS7_5ad6eHv9xY9-1">
          <mxGeometry relative="1" as="geometry">
            <Array as="points">
              <mxPoint x="207" y="535" />
            </Array>
          </mxGeometry>
        </mxCell>
      </root>
    </mxGraphModel>
  </diagram>
</mxfile>
